<?xml version="1.0" encoding="UTF-8"?>
<svg version="1.1" xmlns="http://www.w3.org/2000/svg" width="500" height="500">
<path d="M0 0 C6.765 -0.061875 13.53 -0.12375 20.5 -0.1875 C22.61986328 -0.21481201 24.73972656 -0.24212402 26.92382812 -0.27026367 C28.62629631 -0.27903521 30.32877084 -0.28667756 32.03125 -0.29296875 C33.3301416 -0.3159906 33.3301416 -0.3159906 34.65527344 -0.33947754 C41.07038025 -0.34220815 46.83655024 0.47779005 52.0234375 4.61328125 C58.27783068 12.47646343 59.50212318 20.99817119 58.7890625 30.94140625 C57.63983045 38.73666895 55.15760128 44.537071 48.875 49.4375 C45.1542393 51.45965255 42.5014525 52.12421307 38.33203125 52.09765625 C37.43935547 52.09443359 36.54667969 52.09121094 35.62695312 52.08789062 C34.69818359 52.07951172 33.76941406 52.07113281 32.8125 52.0625 C31.87212891 52.05798828 30.93175781 52.05347656 29.96289062 52.04882812 C27.64189992 52.03704645 25.32094193 52.01911114 23 52 C23 57.28 23 62.56 23 68 C15.41 68 7.82 68 0 68 C0 45.56 0 23.12 0 0 Z M23 18 C23 23.28 23 28.56 23 34 C30.49152482 34.73960026 30.49152482 34.73960026 34 32 C34.36530232 28.87442041 34.36530232 28.87442041 34.1875 25.375 C34.14689453 23.59222656 34.14689453 23.59222656 34.10546875 21.7734375 C34.07066406 20.85820312 34.03585938 19.94296875 34 19 C30.57067929 17.28533964 26.78283935 17.94595944 23 18 Z " fill="#000000" transform="translate(23,207)"/>
<path d="M0 0 C5.909897 4.45096845 8.31081375 10.2478497 9.8046875 17.34375 C10.55041129 27.5974521 10.14790443 37.14919268 4.0546875 45.78125 C-2.66670255 52.65895145 -9.85819066 54.0810476 -19.3203125 54.21875 C-28.33521829 54.1372338 -36.30788984 52.89113149 -42.9453125 46.28125 C-48.65923727 38.90932787 -49.92518955 28.86236406 -48.9453125 19.78125 C-47.75082619 11.4951738 -45.65068208 5.10459685 -38.9453125 -0.21875 C-28.57782694 -7.18316778 -10.40908294 -6.52135317 0 0 Z M-23.9453125 13.78125 C-23.9453125 21.37125 -23.9453125 28.96125 -23.9453125 36.78125 C-21.3053125 36.78125 -18.6653125 36.78125 -15.9453125 36.78125 C-14.68350155 35.74332228 -14.68350155 35.74332228 -14.83178711 33.46459961 C-14.83702393 32.46436768 -14.84226074 31.46413574 -14.84765625 30.43359375 C-14.85087891 29.35400391 -14.85410156 28.27441406 -14.85742188 27.16210938 C-14.86580078 26.02580078 -14.87417969 24.88949219 -14.8828125 23.71875 C-14.88732422 22.57857422 -14.89183594 21.43839844 -14.89648438 20.26367188 C-14.90831503 17.43614649 -14.9247984 14.6087236 -14.9453125 11.78125 C-18.5250634 11.62313612 -18.5250634 11.62313612 -23.9453125 13.78125 Z " fill="#000000" transform="translate(166.9453125,223.21875)"/>
<path d="M0 0 C2.4656856 2.04056739 2.95657975 2.86973924 4 6 C4.08687799 7.54970448 4.1176866 9.10289707 4.11352539 10.6550293 C4.11344986 11.59577805 4.11337433 12.53652679 4.11329651 13.50578308 C4.10813522 14.51836685 4.10297394 15.53095062 4.09765625 16.57421875 C4.0962413 17.61318802 4.09482635 18.65215729 4.09336853 19.72261047 C4.08776656 23.04426948 4.07521372 26.36586133 4.0625 29.6875 C4.05748525 31.93815007 4.0529223 34.18880119 4.04882812 36.43945312 C4.03864696 41.95968217 4.01907183 47.47976582 4 53 C-3.59 53 -11.18 53 -19 53 C-19 40.79 -19 28.58 -19 16 C-22.96 16.495 -22.96 16.495 -27 17 C-27.33 28.88 -27.66 40.76 -28 53 C-35.59 53 -43.18 53 -51 53 C-51 34.85 -51 16.7 -51 -2 C-47.04 -2 -43.08 -2 -39 -2 C-37.68 -0.68 -36.36 0.64 -35 2 C-34.195625 1.731875 -33.39125 1.46375 -32.5625 1.1875 C-31.386875 0.795625 -30.21125 0.40375 -29 0 C-28.36964844 -0.26425781 -27.73929687 -0.52851563 -27.08984375 -0.80078125 C-18.25318831 -4.28589209 -8.33196384 -4.86838585 0 0 Z " fill="#000000" transform="translate(341,222)"/>
<path d="M0 0 C0.8559375 -0.020625 1.711875 -0.04125 2.59375 -0.0625 C9.98618791 -0.10730265 16.46253473 0.92711227 22.25 5.75 C26.92485823 11.59357278 25.98187872 20.13727571 25.25 27.25 C23.23961876 32.0051822 19.9110969 34.1978157 15.25 36.125 C8.22533771 38.28134643 1.54775469 38.36686796 -5.75 38.25 C-5.75 39.24 -5.75 40.23 -5.75 41.25 C3.07641419 40.79736337 11.58829426 40.10479354 20.25 38.25 C22.0917395 43.89800112 22.79775239 49.33507728 23.25 55.25 C10.02639764 58.52664483 -5.54490513 61.34764565 -18.48046875 55.625 C-24.6894299 51.8632886 -27.74868129 47.32615649 -29.6875 40.375 C-31.73084798 30.24710129 -31.94723488 18.85322558 -26.203125 9.81640625 C-18.90822596 1.0205656 -10.80516857 0.06393591 0 0 Z M-5.75 18.25 C-5.75 20.56 -5.75 22.87 -5.75 25.25 C-1.295 24.755 -1.295 24.755 3.25 24.25 C3.91 21.94 4.57 19.63 5.25 17.25 C0.95700357 15.98735399 -1.62831311 16.62049588 -5.75 18.25 Z " fill="#000000" transform="translate(382.75,218.75)"/>
<path d="M0 0 C0 4.62 0 9.24 0 14 C2.64 14 5.28 14 8 14 C8 18.95 8 23.9 8 29 C5.36 29 2.72 29 0 29 C0 36.92 0 44.84 0 53 C2.31 53.33 4.62 53.66 7 54 C6.85978195 56.64624284 6.71310224 59.29184578 6.5625 61.9375 C6.52318359 62.69224609 6.48386719 63.44699219 6.44335938 64.22460938 C6.11328125 69.88671875 6.11328125 69.88671875 5 71 C2.08672869 70.98809695 -0.78085265 70.9002261 -3.6875 70.75 C-4.8930957 70.70939453 -4.8930957 70.70939453 -6.12304688 70.66796875 C-11.86965774 70.37664424 -15.80843693 69.14587131 -20.64453125 65.89428711 C-22.80232314 62.87874185 -22.36659217 59.61738718 -22.29296875 56.05078125 C-22.28872391 55.27816452 -22.28447906 54.50554779 -22.28010559 53.70951843 C-22.26332183 51.24349008 -22.22567147 48.77828104 -22.1875 46.3125 C-22.17245271 44.63998577 -22.15876438 42.96745872 -22.14648438 41.29492188 C-22.11341946 37.19629922 -22.06164028 33.09828849 -22 29 C-23.98 29 -25.96 29 -28 29 C-28 24.05 -28 19.1 -28 14 C-26.02 14 -24.04 14 -22 14 C-22 11.36 -22 8.72 -22 6 C-4.76595745 0 -4.76595745 0 0 0 Z " fill="#000000" transform="translate(209,206)"/>
<path d="M0 0 C0 18.48 0 36.96 0 56 C1.65 56.33 3.3 56.66 5 57 C4.67 62.61 4.34 68.22 4 74 C-14.63330125 73.41770934 -14.63330125 73.41770934 -21 69 C-23.3770264 65.4344604 -23.24340923 63.92128639 -23.22705078 59.69262695 C-23.22689972 58.39150467 -23.22674866 57.09038239 -23.22659302 55.74983215 C-23.21637969 54.32931363 -23.2059477 52.90879667 -23.1953125 51.48828125 C-23.19158183 50.03525487 -23.18873511 48.58222597 -23.18673706 47.12919617 C-23.17910481 43.30688518 -23.15945992 39.48472646 -23.1373291 35.66247559 C-23.11686183 31.7613328 -23.10773346 27.86016539 -23.09765625 23.95898438 C-23.07621357 16.30592021 -23.04208264 8.65298145 -23 1 C-15.13042178 -0.2848291 -8.27654578 0 0 0 Z " fill="#000000" transform="translate(247,203)"/>
<path d="M0 0 C0 18.48 0 36.96 0 56 C1.65 56.33 3.3 56.66 5 57 C4.67 62.61 4.34 68.22 4 74 C-14.63330125 73.41770934 -14.63330125 73.41770934 -21 69 C-23.3770264 65.4344604 -23.24340923 63.92128639 -23.22705078 59.69262695 C-23.22689972 58.39150467 -23.22674866 57.09038239 -23.22659302 55.74983215 C-23.21637969 54.32931363 -23.2059477 52.90879667 -23.1953125 51.48828125 C-23.19158183 50.03525487 -23.18873511 48.58222597 -23.18673706 47.12919617 C-23.17910481 43.30688518 -23.15945992 39.48472646 -23.1373291 35.66247559 C-23.11686183 31.7613328 -23.10773346 27.86016539 -23.09765625 23.95898438 C-23.07621357 16.30592021 -23.04208264 8.65298145 -23 1 C-15.13042178 -0.2848291 -8.27654578 0 0 0 Z " fill="#000000" transform="translate(110,203)"/>
<path d="M0 0 C4.79165625 3.13197643 7.85235575 7.49953469 9.54296875 12.953125 C11.01820451 20.60682338 10.15442943 27.38649267 5.9375 34 C0.793259 39.37807013 -4.66986353 41.6169604 -11.9375 42.4375 C-17.78351052 42.16131053 -23.48437339 40.19087714 -27.9609375 36.38671875 C-33.26592451 30.55123304 -34.62702363 24.66380895 -34.42578125 16.87890625 C-33.66523022 10.85174378 -31.41494639 6.22793127 -26.99609375 2.04296875 C-19.04259019 -3.55199998 -8.7779784 -4.28657945 0 0 Z " fill="#14B078" transform="translate(462.0625,235)"/>
<path d="M0 0 C0 18.15 0 36.3 0 55 C-7.59 55 -15.18 55 -23 55 C-23 37.84 -23 20.68 -23 3 C-2 0 -2 0 0 0 Z " fill="#000000" transform="translate(280,220)"/>
<path d="M0 0 C2.04298986 3.98869448 2.12502481 8.17779405 1.3125 12.5625 C-0.33745271 14.65151575 -1.27307269 15.42842057 -3.8125 16.25 C-15.83890845 17.55721831 -15.83890845 17.55721831 -20.6875 14.5625 C-22.71268299 12.26729262 -23.6533803 10.65433035 -23.75 7.5625 C-23.4914277 4.63201391 -23.04831189 2.15119308 -21.5 -0.375 C-15.54605259 -3.86524503 -5.95657207 -3.18607343 0 0 Z " fill="#010101" transform="translate(279.6875,203.4375)"/>
<path d="M0 0 C0.99 0.66 1.98 1.32 3 2 C1.79601562 2.03738281 0.59203125 2.07476562 -0.6484375 2.11328125 C-2.22399011 2.17892928 -3.79950954 2.24537701 -5.375 2.3125 C-6.1690625 2.33505859 -6.963125 2.35761719 -7.78125 2.38085938 C-9.86215581 2.47785075 -11.93441332 2.72994825 -14 3 C-14.99 4.485 -14.99 4.485 -16 6 C-16.99 5.67 -17.98 5.34 -19 5 C-19.33 7.64 -19.66 10.28 -20 13 C-22 13 -24 13 -26 13 C-26.33 14.32 -26.66 15.64 -27 17 C-27.66 16.67 -28.32 16.34 -29 16 C-26.41503278 9.11582414 -23.56064517 4.50654125 -16.96875 0.9921875 C-11.43512423 -0.85720848 -5.74385467 -0.77680219 0 0 Z " fill="#23A678" transform="translate(457,233)"/>
<path d="M0 0 C3.14136538 2.57020804 4.05876859 5.09026955 5 9 C5.15241029 12.00887403 5.12037983 14.99050424 5 18 C4.67 18 4.34 18 4 18 C4 16.02 4 14.04 4 12 C2.68 11.34 1.36 10.68 0 10 C0.33 9.01 0.66 8.02 1 7 C0.34 6.67 -0.32 6.34 -1 6 C-0.67 4.02 -0.34 2.04 0 0 Z " fill="#20A377" transform="translate(467,241)"/>
<path d="M0 0 C1 3 1 3 0.29296875 4.7890625 C-0.07183594 5.39492188 -0.43664062 6.00078125 -0.8125 6.625 C-1.16957031 7.23601562 -1.52664063 7.84703125 -1.89453125 8.4765625 C-3 10 -3 10 -5 11 C-5 10.01 -5 9.02 -5 8 C-4.34 8 -3.68 8 -3 8 C-3.0928125 6.8553125 -3.0928125 6.8553125 -3.1875 5.6875 C-3 3 -3 3 -1.5 1.1875 C-1.005 0.795625 -0.51 0.40375 0 0 Z " fill="#26A178" transform="translate(470,260)"/>
</svg>
