<?xml version="1.0" encoding="UTF-8"?>
<svg version="1.1" xmlns="http://www.w3.org/2000/svg" width="500" height="500">
<path d="M0 0 C2.47451244 2.26539871 4.83615308 4.61962684 7.19555664 7.00561523 C8.06954102 7.86928711 8.94352539 8.73295898 9.84399414 9.62280273 C28.29125804 28.75119638 36.4816316 54.70497939 36.19555664 81.00561523 C35.08417682 108.75018094 22.17058975 133.14030619 2.19555664 152.00561523 C12.09555664 152.50061523 12.09555664 152.50061523 22.19555664 153.00561523 C22.19555664 209.10561523 22.19555664 265.20561523 22.19555664 323.00561523 C-59.97444336 323.00561523 -142.14444336 323.00561523 -226.80444336 323.00561523 C-228.12444336 331.91561523 -229.44444336 340.82561523 -230.80444336 350.00561523 C-231.13444336 350.99561523 -231.46444336 351.98561523 -231.80444336 353.00561523 C-234.0847168 353.86181641 -234.0847168 353.86181641 -237.16381836 354.54858398 C-238.32510254 354.81348633 -239.48638672 355.07838867 -240.68286133 355.35131836 C-241.9604834 355.62911133 -243.23810547 355.9069043 -244.55444336 356.19311523 C-245.88302057 356.49457682 -247.21130357 356.79733755 -248.53930664 357.10131836 C-255.41760697 358.66231438 -262.31265812 360.12195844 -269.23120117 361.4934845 C-272.56673886 362.15622295 -275.89869976 362.8361682 -279.23083496 363.51577759 C-281.6383724 363.9973991 -284.05028176 364.44939651 -286.46362305 364.90087891 C-296.35712058 366.85001832 -302.48033004 369.51278031 -308.8269043 377.57470703 C-313.10593582 381.06817348 -317.32600595 381.55887104 -322.68725586 382.46264648 C-324.26408646 382.75168098 -324.26408646 382.75168098 -325.87277222 383.04655457 C-329.22196966 383.65557164 -332.57533729 384.2368106 -335.92944336 384.81811523 C-338.19408266 385.22717481 -340.45841043 385.63796314 -342.72241211 386.05053711 C-346.85883961 386.79682476 -350.99572861 387.53960617 -355.13696289 388.25878906 C-355.96793488 388.40359207 -356.79890686 388.54839508 -357.65505981 388.69758606 C-359.80444336 389.00561523 -359.80444336 389.00561523 -362.80444336 389.00561523 C-363.31086666 385.29812977 -363.80843491 381.58950725 -364.30444336 377.88061523 C-364.4475293 376.83389648 -364.59061523 375.78717773 -364.73803711 374.70874023 C-364.87338867 373.69038086 -365.00874023 372.67202148 -365.14819336 371.62280273 C-365.27387695 370.69064941 -365.39956055 369.75849609 -365.52905273 368.7980957 C-365.81979244 365.84997452 -365.85028334 362.96611383 -365.80444336 360.00561523 C-356.41813452 357.50657184 -346.95323128 355.52095965 -337.4206543 353.67871094 C-335.74780393 353.35263299 -334.07624755 353.01985111 -332.40600586 352.68066406 C-329.96074628 352.18432779 -327.51231903 351.70806068 -325.06225586 351.23608398 C-324.32153839 351.08205612 -323.58082092 350.92802826 -322.81765747 350.76933289 C-316.50042597 349.59325689 -312.39237092 350.92186317 -307.05444336 354.19311523 C-299.18764617 358.17429561 -288.68334021 354.33935238 -280.45288086 352.72045898 C-279.312836 352.49991348 -278.17279114 352.27936798 -276.99819946 352.05213928 C-273.39111495 351.35334151 -269.78527775 350.64833221 -266.17944336 349.94311523 C-263.71988801 349.46548921 -261.26025331 348.98827157 -258.80053711 348.51147461 C-252.80091366 347.34757543 -246.80229925 346.17858708 -240.80444336 345.00561523 C-240.71880127 344.41022949 -240.63315918 343.81484375 -240.54492188 343.20141602 C-240.15583083 340.51061894 -239.76145335 337.82062291 -239.36694336 335.13061523 C-239.23223633 334.1934668 -239.0975293 333.25631836 -238.95874023 332.29077148 C-238.82661133 331.39487305 -238.69448242 330.49897461 -238.55834961 329.57592773 C-238.43790283 328.74851074 -238.31745605 327.92109375 -238.19335938 327.06860352 C-237.80444336 325.00561523 -237.80444336 325.00561523 -236.80444336 323.00561523 C-245.38444336 323.00561523 -253.96444336 323.00561523 -262.80444336 323.00561523 C-262.80444336 289.34561523 -262.80444336 255.68561523 -262.80444336 221.00561523 C-268.08444336 221.00561523 -273.36444336 221.00561523 -278.80444336 221.00561523 C-279.46444336 222.65561523 -280.12444336 224.30561523 -280.80444336 226.00561523 C-282.80444336 229.00561523 -282.80444336 229.00561523 -284.96850586 229.73608398 C-286.18666992 229.96231445 -286.18666992 229.96231445 -287.42944336 230.19311523 C-288.24670898 230.35166992 -289.06397461 230.51022461 -289.90600586 230.67358398 C-290.53249023 230.7831543 -291.15897461 230.89272461 -291.80444336 231.00561523 C-296.14750131 222.0102752 -300.48073045 213.01026726 -304.80444336 204.00561523 C-305.2667334 203.04365234 -305.72902344 202.08168945 -306.20532227 201.09057617 C-307.34708378 198.71022532 -308.4833835 196.32738015 -309.61694336 193.94311523 C-309.94758789 193.25483643 -310.27823242 192.56655762 -310.61889648 191.85742188 C-312.80444336 187.23704666 -312.80444336 187.23704666 -312.80444336 185.00561523 C-300.47736357 184.18177574 -291.0183162 185.73451094 -279.80444336 191.00561523 C-279.47444336 191.33561523 -279.14444336 191.66561523 -278.80444336 192.00561523 C-276.27394934 192.0787509 -273.77139499 192.0980905 -271.24194336 192.06811523 C-270.53102539 192.06360352 -269.82010742 192.0590918 -269.08764648 192.05444336 C-267.32654323 192.04262387 -265.565483 192.02468787 -263.80444336 192.00561523 C-263.30944336 188.04561523 -263.30944336 188.04561523 -262.80444336 184.00561523 C-264.69163086 183.66530273 -264.69163086 183.66530273 -266.61694336 183.31811523 C-284.3748054 179.31634351 -300.71809837 166.96008914 -310.89428711 152.10327148 C-323.33554322 131.92757395 -329.0312389 109.70928498 -323.87475586 86.17358398 C-318.50374044 64.2530631 -305.82134083 46.34833856 -286.80444336 34.00561523 C-266.80986717 22.17220092 -244.41421211 18.89561252 -221.79516602 24.45776367 C-201.90202674 29.93240244 -185.72057202 42.32303511 -173.80444336 59.00561523 C-173.47444336 59.66561523 -173.14444336 60.32561523 -172.80444336 61.00561523 C-166.86444336 60.51061523 -166.86444336 60.51061523 -160.80444336 60.00561523 C-160.74256836 58.80936523 -160.68069336 57.61311523 -160.61694336 56.38061523 C-158.14521477 35.00350307 -143.65802205 14.0689056 -127.73413086 0.31030273 C-90.92196131 -28.64860398 -36.44746525 -31.91377015 0 0 Z M-102.80444336 42.00561523 C-112.7589838 54.76784657 -115.41538375 68.18526409 -113.80444336 84.00561523 C-111.30852921 97.23839085 -103.484605 108.05162098 -92.80444336 116.00561523 C-81.22656437 123.31027075 -67.80716007 126.10314095 -54.33959961 123.27905273 C-40.11410163 119.19565425 -28.91634089 111.82709103 -21.31225586 98.90014648 C-14.75952775 86.32094562 -13.61776602 72.62031038 -17.42944336 58.94311523 C-19.43410571 53.33147239 -22.140148 48.68265554 -25.80444336 44.00561523 C-26.25561523 43.39202148 -26.70678711 42.77842773 -27.17163086 42.14624023 C-34.72865009 32.49716483 -45.83110073 26.94381139 -57.80444336 25.00561523 C-75.24423299 23.66239911 -90.81254866 29.15872256 -102.80444336 42.00561523 Z M-276.04272461 77.56420898 C-282.81417938 86.94815407 -284.15585832 98.47558316 -282.37866211 109.69311523 C-279.55756627 120.49289317 -273.03474538 129.76225766 -263.42163086 135.40405273 C-253.35504714 140.72979886 -243.35247926 142.63469225 -232.18725586 139.81420898 C-221.30460467 136.12124374 -212.25751875 129.17420731 -206.86694336 118.94311523 C-201.69788148 107.39293558 -201.68628776 96.93890704 -205.80444336 85.00561523 C-210.84382491 73.81237353 -219.52489154 66.54470949 -230.80444336 62.00561523 C-248.21371127 56.17761997 -264.82223836 64.5361002 -276.04272461 77.56420898 Z M-164.80444336 129.00561523 C-167.7905234 133.35868126 -169.14922873 138.02897323 -170.80444336 143.00561523 C-172.26147461 145.63452148 -172.26147461 145.63452148 -173.67944336 147.75561523 C-175.98685981 150.63742908 -175.98685981 150.63742908 -175.80444336 153.00561523 C-159.96444336 153.00561523 -144.12444336 153.00561523 -127.80444336 153.00561523 C-131.093864 149.16795782 -134.31443843 145.43674103 -137.74194336 141.75561523 C-141.54648022 137.52754068 -144.47421852 132.98639176 -147.35913086 128.09545898 C-147.83608398 127.40581055 -148.31303711 126.71616211 -148.80444336 126.00561523 C-154.4566714 126.00561523 -159.6368897 126.64279993 -164.80444336 129.00561523 Z M-123.80444336 193.00561523 C-123.87402904 201.00302409 -123.92729783 209.00030593 -123.95987988 216.99794292 C-123.97551959 220.71179097 -123.99672645 224.42543152 -124.03076172 228.13916016 C-124.06341631 231.72477565 -124.08130912 235.31019185 -124.08907509 238.8959446 C-124.09460771 240.26226754 -124.10541172 241.62857989 -124.12163353 242.99481773 C-124.14348611 244.91196381 -124.14466943 246.82931145 -124.14501953 248.74658203 C-124.15168137 249.83690231 -124.1583432 250.9272226 -124.16520691 252.05058289 C-123.75188762 255.43610196 -122.82463403 257.2803692 -120.80444336 260.00561523 C-116.10784748 263.12520165 -111.89136091 263.52026974 -106.42944336 263.69311523 C-105.69338867 263.72727539 -104.95733398 263.76143555 -104.19897461 263.79663086 C-102.40130483 263.87834312 -100.6029029 263.94367304 -98.80444336 264.00561523 C-98.0018108 260.49804776 -97.69400759 257.28829771 -97.74194336 253.69311523 C-97.7509668 252.81010742 -97.75999023 251.92709961 -97.76928711 251.01733398 C-97.78088867 250.3534668 -97.79249023 249.68959961 -97.80444336 249.00561523 C-99.45444336 248.67561523 -101.10444336 248.34561523 -102.80444336 248.00561523 C-102.80444336 229.52561523 -102.80444336 211.04561523 -102.80444336 192.00561523 C-113.46977134 191.9400133 -113.46977134 191.9400133 -123.80444336 193.00561523 Z M-187.80444336 196.00561523 C-187.80444336 218.11561523 -187.80444336 240.22561523 -187.80444336 263.00561523 C-180.87444336 263.00561523 -173.94444336 263.00561523 -166.80444336 263.00561523 C-166.80444336 257.39561523 -166.80444336 251.78561523 -166.80444336 246.00561523 C-165.4419043 246.04041992 -164.07936523 246.07522461 -162.67553711 246.11108398 C-160.86435159 246.13923713 -159.05315265 246.16653564 -157.24194336 246.19311523 C-156.34668945 246.21825195 -155.45143555 246.24338867 -154.52905273 246.26928711 C-147.99273718 246.34111475 -143.21701395 245.6637539 -137.91381836 241.53295898 C-131.96158571 234.57158344 -130.22442056 226.79892379 -130.51928711 217.74780273 C-131.13134087 211.86202546 -132.38192937 206.87520505 -135.99194336 202.13061523 C-142.71770622 197.04892774 -148.15706014 195.41146587 -156.55444336 195.61499023 C-157.35237305 195.61901855 -158.15030273 195.62304688 -158.97241211 195.62719727 C-161.91666076 195.64792352 -164.8605783 195.70376724 -167.80444336 195.75561523 C-174.40444336 195.83811523 -181.00444336 195.92061523 -187.80444336 196.00561523 Z M-82.58569336 231.13452148 C-86.78255097 237.14275867 -88.29779772 241.60529982 -87.80444336 249.00561523 C-86.39907112 254.72669748 -83.95430701 258.85575159 -79.80444336 263.00561523 C-73.6346333 266.65713547 -67.98612983 268.02563226 -60.82006836 266.61499023 C-54.87216983 264.81678835 -51.24675769 261.08535477 -47.80444336 256.00561523 C-45.01023315 250.22160009 -44.65991427 243.8618979 -46.49194336 237.68920898 C-49.22013181 231.69856185 -53.65593847 227.49118104 -59.80444336 225.00561523 C-68.46828724 224.02004569 -76.6913272 224.08971983 -82.58569336 231.13452148 Z " fill="#13B178" transform="translate(375.804443359375,66.994384765625)"/>
<path d="M0 0 C0 45.54 0 91.08 0 138 C-6.52896948 134.73551526 -12.61223615 131.2981766 -18.8125 127.5 C-19.83674072 126.89067627 -20.86098145 126.28135254 -21.91625977 125.65356445 C-26.63224514 122.82250579 -31.12889815 120.02142415 -35.3203125 116.44921875 C-51.16946921 103.53565078 -70.45736807 106.74029725 -90 107 C-90 81.92 -90 56.84 -90 31 C-83.9775 31.0825 -77.955 31.165 -71.75 31.25 C-56.33282611 31.07685172 -45.73952058 29.64057268 -33.39746094 19.80712891 C-28.7407644 16.2970609 -23.63812341 13.46575816 -18.625 10.5 C-16.71891556 9.34777449 -14.81511596 8.19175733 -12.9140625 7.03125 C-12.05844727 6.50917969 -11.20283203 5.98710937 -10.32128906 5.44921875 C-8.33233439 4.2074818 -6.39143474 2.92351849 -4.4609375 1.59375 C-2 0 -2 0 0 0 Z " fill="#13B178" transform="translate(490,209)"/>
<path d="M0 0 C0.33 0 0.66 0 1 0 C1 23.76 1 47.52 1 72 C-81.17 72 -163.34 72 -248 72 C-248.33 74.64 -248.66 77.28 -249 80 C-249.33 80 -249.66 80 -250 80 C-250.33 77.36 -250.66 74.72 -251 72 C-246.12163855 69.43623823 -241.4230588 69.74216723 -236.05961609 69.79745483 C-235.05079008 69.79982954 -234.04196408 69.80220424 -233.00256759 69.8046509 C-229.61837981 69.81507706 -226.23445258 69.83995468 -222.8503418 69.86474609 C-220.42599336 69.87517096 -218.00164096 69.88470643 -215.57728577 69.89341736 C-210.35586377 69.91418242 -205.13451268 69.9411421 -199.91315269 69.97373581 C-192.36396762 70.02084997 -184.8147618 70.05679314 -177.26550434 70.09001906 C-165.01704466 70.14423016 -152.76864885 70.20746251 -140.52026367 70.27636719 C-128.62282337 70.34327827 -116.72537319 70.40594122 -104.82788086 70.46289062 C-103.72764992 70.46815929 -103.72764992 70.46815929 -102.60519209 70.47353439 C-98.92546406 70.49112925 -95.24573564 70.5086406 -91.56600702 70.52611041 C-61.04392826 70.67112454 -30.5219657 70.83244063 0 71 C0 47.57 0 24.14 0 0 Z " fill="#21A778" transform="translate(397,318)"/>
<path d="M0 0 C9.625 -0.25 9.625 -0.25 13 2 C14.49304497 6.4791349 14.72076325 10.99215951 13.125 15.4375 C12 17 12 17 10 18 C8.29297265 18.06996014 6.58331997 18.08440154 4.875 18.0625 C3.26625 18.041875 1.6575 18.02125 0 18 C0 12.06 0 6.12 0 0 Z " fill="#12B278" transform="translate(209,279)"/>
<path d="M0 0 C2.89479637 1.73687782 3.01335881 3.05152682 3.875 6.375 C4.01384714 10.40156711 3.47120257 11.88811528 1 15 C-2.20841035 16.60420518 -5.5193987 16.47462745 -9 16 C-11.5 14.5 -11.5 14.5 -13 12 C-13.54719708 9.21841484 -13.58180519 6.7778346 -13 4 C-9.03987453 -1.1481631 -6.20394385 -1.30609344 0 0 Z " fill="#13B179" transform="translate(336,122)"/>
<path d="M0 0 C2.03125 0.703125 2.03125 0.703125 4.15625 2.828125 C5.3094257 6.61713088 5.13730701 8.90105401 4.03125 12.703125 C1.44321019 15.58694079 -0.16404549 16.5522429 -3.96875 17.265625 C-8.10482554 16.49011084 -9.51874553 15.08989589 -11.96875 11.703125 C-12.75402701 7.30557376 -12.45933836 5.46274568 -10.03125 1.703125 C-6.28873018 -0.74096958 -4.30812488 -0.77546248 0 0 Z " fill="#1DAC78" transform="translate(309.96875,106.296875)"/>
<path d="M0 0 C2.4375 1.0625 2.4375 1.0625 4 3 C5.07845965 6.88245475 5.39223942 9.0710119 3.8125 12.8125 C1.8836966 15.14036617 0.89710361 16.17225611 -2 17 C-5.4631425 16.8557024 -7.47465004 16.34562497 -10.375 14.4375 C-12.68780769 10.96828847 -12.79710231 8.05193677 -12 4 C-9.12138907 -0.79768489 -5.11359841 -0.84001617 0 0 Z " fill="#18AE78" transform="translate(332,150)"/>
<path d="M0 0 C2.375 1 2.375 1 4 3 C5.37736722 7.13210167 5.44897396 10.02042045 3.625 14 C0.32401184 16.5150386 -1.79438578 16.72615669 -5.87109375 16.484375 C-8 16 -8 16 -10.5625 13.875 C-12.26523868 10.46952264 -12.70338515 8.75138748 -12 5 C-8.52074434 0.15012847 -5.8769667 -0.85483152 0 0 Z " fill="#17AF78" transform="translate(302,155)"/>
<path d="M0 0 C3.06458538 2.04305692 3.82153128 3.44079802 4.9375 6.9375 C5.01221891 10.59872681 4.21363944 12.1304674 2 15 C-1.20841035 16.60420518 -4.5193987 16.47462745 -8 16 C-10.5 14.5 -10.5 14.5 -12 12 C-12.791013 7.97901723 -12.62153384 5.03588973 -10.5 1.5 C-6.97359191 -0.61584485 -4.01178761 -0.80730018 0 0 Z " fill="#14B178" transform="translate(291,128)"/>
<path d="M0 0 C0 0.66 0 1.32 0 2 C-4.43657221 5.70756593 -8.75626845 5.39336033 -14.23828125 5.29296875 C-15.41022034 5.28843689 -15.41022034 5.28843689 -16.60583496 5.28381348 C-19.50819213 5.26818594 -22.41036014 5.22630203 -25.3125 5.1875 C-31.809375 5.125625 -38.30625 5.06375 -45 5 C-45 29.42 -45 53.84 -45 79 C-32.13 79 -19.26 79 -6 79 C-6 79.33 -6 79.66 -6 80 C-19.2 80 -32.4 80 -46 80 C-46 54.92 -46 29.84 -46 4 C-26.8125 3.6875 -26.8125 3.6875 -20.78051758 3.61206055 C-19.19349839 3.57975943 -17.60650055 3.54638413 -16.01953125 3.51171875 C-14.79478088 3.50235291 -14.79478088 3.50235291 -13.54528809 3.49279785 C-8.45000801 3.36438465 -4.44223297 0 0 0 Z " fill="#27B080" transform="translate(446,236)"/>
<path d="M0 0 C0 45.54 0 91.08 0 138 C-0.99 137.34 -1.98 136.68 -3 136 C-2.34 136 -1.68 136 -1 136 C-1 92.77 -1 49.54 -1 5 C-5.455 5.495 -5.455 5.495 -10 6 C-2.6 0 -2.6 0 0 0 Z " fill="#2C9972" transform="translate(490,209)"/>
<path d="M0 0 C2.375 1.625 2.375 1.625 4 4 C4.5625 7 4.5625 7 4 10 C1.875 12.4375 1.875 12.4375 -1 14 C-4.50732933 14 -6.2434698 13.6345092 -8.9375 11.375 C-10.48100034 7.92482276 -9.93333407 5.60000284 -9 2 C-5.50875983 -0.32749345 -4.10777749 -0.50299316 0 0 Z " fill="#14B179" transform="translate(132,139)"/>
<path d="M0 0 C3.4375 1 3.4375 1 5.4375 2.6875 C6.82656225 5.89970645 6.49271374 7.6936636 5.4375 11 C3.8125 12.9375 3.8125 12.9375 1.4375 14 C-2.1875 13.875 -2.1875 13.875 -5.5625 13 C-7.88999345 9.50875983 -8.06549316 8.10777749 -7.5625 4 C-5.27647022 0.43379354 -4.27192374 0 0 0 Z " fill="#25A87A" transform="translate(123.5625,178)"/>
<path d="M0 0 C3.4375 1 3.4375 1 5.4375 2.6875 C6.82656225 5.89970645 6.49271374 7.6936636 5.4375 11 C3.8125 12.9375 3.8125 12.9375 1.4375 14 C-2.1875 13.875 -2.1875 13.875 -5.5625 13 C-7.88999345 9.50875983 -8.06549316 8.10777749 -7.5625 4 C-5.27647022 0.43379354 -4.27192374 0 0 0 Z " fill="#1CAC78" transform="translate(147.5625,174)"/>
<path d="M0 0 C2.32749345 3.49124017 2.50299316 4.89222251 2 9 C0.4375 11.4375 0.4375 11.4375 -2 13 C-5.81153499 13 -8.05097421 12.80074051 -11 10.3125 C-12.38906225 7.10029355 -12.05521374 5.3063364 -11 2 C-7.74497881 -1.88098681 -4.6330741 -1.20116736 0 0 Z " fill="#12B278" transform="translate(154,152)"/>
<path d="M0 0 C2.0625 3.25 2.0625 3.25 3 7 C1.90826454 9.51099157 0.91823096 11.08176904 -1 13 C-7.16698656 13.45681382 -7.16698656 13.45681382 -9.9375 11.9375 C-11.5957539 8.91362524 -11.30144019 6.37613017 -11 3 C-7.96788923 -1.54816616 -5.00774755 -1.66924918 0 0 Z " fill="#1EAC79" transform="translate(118,157)"/>
<path d="M0 0 C2 1 2 1 2.875 3 C3.8234856 5.20005805 3.8234856 5.20005805 6.125 5.75 C6.74375 5.8325 7.3625 5.915 8 6 C8 6.66 8 7.32 8 8 C7.37005127 7.84152588 6.74010254 7.68305176 6.09106445 7.51977539 C1.90549351 6.81595416 -2.21917867 6.7649067 -6.45703125 6.68359375 C-7.35999435 6.66281265 -8.26295746 6.64203156 -9.19328308 6.62062073 C-12.06628097 6.5554472 -14.93936714 6.49639045 -17.8125 6.4375 C-19.76498294 6.39428414 -21.71745708 6.35066888 -23.66992188 6.30664062 C-28.44652503 6.19979893 -33.22321664 6.09844143 -38 6 C-38 5.34 -38 4.68 -38 4 C-25.79 4 -13.58 4 -1 4 C-0.67 2.68 -0.34 1.36 0 0 Z " fill="#29A278" transform="translate(226,257)"/>
<path d="M0 0 C9.625 -0.25 9.625 -0.25 13 2 C14.49304497 6.4791349 14.72076325 10.99215951 13.125 15.4375 C12 17 12 17 10 18 C8.29297265 18.06996014 6.58331997 18.08440154 4.875 18.0625 C3.26625 18.041875 1.6575 18.02125 0 18 C0 12.06 0 6.12 0 0 Z M2 2 C2 6.62 2 11.24 2 16 C8.4202491 16.36893239 8.4202491 16.36893239 12 15 C12 10.71 12 6.42 12 2 C8.7 2 5.4 2 2 2 Z " fill="#30A079" transform="translate(209,279)"/>
<path d="M0 0 C0.66 0.66 1.32 1.32 2 2 C1.34 2 0.68 2 0 2 C-0.33 2.66 -0.66 3.32 -1 4 C-3.31 3.67 -5.62 3.34 -8 3 C-8.33 5.97 -8.66 8.94 -9 12 C-5.34543185 12.75241109 -1.68266103 13.40049704 2 14 C1.67 14.66 1.34 15.32 1 16 C-2.05290263 16.29354833 -4.95457539 16.41409388 -8 16 C-11.06018871 13.46228253 -11.83450185 11.88265681 -12.5625 8 C-11.2427854 0.96152211 -6.65704806 -0.87923276 0 0 Z " fill="#25A87A" transform="translate(302,155)"/>
<path d="M0 0 C2.32749345 3.49124017 2.50299316 4.89222251 2 9 C0.4375 11.4375 0.4375 11.4375 -2 13 C-5.81153499 13 -8.05097421 12.80074051 -11 10.3125 C-12.38906225 7.10029355 -12.05521374 5.3063364 -11 2 C-7.74497881 -1.88098681 -4.6330741 -1.20116736 0 0 Z M-7 1 C-7.33 1.99 -7.66 2.98 -8 4 C-8.99 4 -9.98 4 -11 4 C-11 4.99 -11 5.98 -11 7 C-10.34 7 -9.68 7 -9 7 C-8.67 8.32 -8.34 9.64 -8 11 C-5.69 11 -3.38 11 -1 11 C-1 9.68 -1 8.36 -1 7 C-0.34 6.67 0.32 6.34 1 6 C1 5.34 1 4.68 1 4 C0.34 4 -0.32 4 -1 4 C-1.33 3.01 -1.66 2.02 -2 1 C-3.65 1 -5.3 1 -7 1 Z " fill="#2DA379" transform="translate(154,152)"/>
<path d="M0 0 C3.06458538 2.04305692 3.82153128 3.44079802 4.9375 6.9375 C5.01221891 10.59872681 4.21363944 12.1304674 2 15 C-1.21451269 16.60725635 -4.43612536 16.05748185 -8 16 C-8 15.67 -8 15.34 -8 15 C-5.69 15 -3.38 15 -1 15 C-1 14.34 -1 13.68 -1 13 C-0.01 13 0.98 13 2 13 C1.814375 12.030625 1.62875 11.06125 1.4375 10.0625 C1.293125 9.051875 1.14875 8.04125 1 7 C1.33 6.67 1.66 6.34 2 6 C1.01 5.34 0.02 4.68 -1 4 C-1 3.01 -1 2.02 -1 1 C-3.35171131 1.59861742 -5.6859378 2.26924352 -8 3 C-8.33 3.66 -8.66 4.32 -9 5 C-9.66 5 -10.32 5 -11 5 C-11 7.31 -11 9.62 -11 12 C-11.33 12 -11.66 12 -12 12 C-12.48 4.8 -12.48 4.8 -10.5 1.5 C-6.97359191 -0.61584485 -4.01178761 -0.80730018 0 0 Z " fill="#2AA57A" transform="translate(291,128)"/>
<path d="M0 0 C0.4125 0.556875 0.825 1.11375 1.25 1.6875 C1.8275 2.450625 2.405 3.21375 3 4 C3.598125 4.845625 4.19625 5.69125 4.8125 6.5625 C8.15933482 10.29183022 12.13923322 12.04707989 17 13 C18.91561254 13.06688591 20.83335592 13.08531719 22.75 13.0625 C23.73484375 13.05347656 24.7196875 13.04445313 25.734375 13.03515625 C26.48203125 13.02355469 27.2296875 13.01195312 28 13 C27.67 13.66 27.34 14.32 27 15 C24.93757383 15.02717692 22.87504297 15.0464758 20.8125 15.0625 C19.66394531 15.07410156 18.51539063 15.08570313 17.33203125 15.09765625 C14.39563721 15.01159546 11.85054126 14.65552517 9 14 C7.6696875 13.8453125 7.6696875 13.8453125 6.3125 13.6875 C4 13 4 13 2.8125 11 C2.544375 10.34 2.27625 9.68 2 9 C1.34 8.67 0.68 8.34 0 8 C0 5.33333333 0 2.66666667 0 0 Z " fill="#24A778" transform="translate(289,320)"/>
<path d="M0 0 C-0.474375 0.45375 -0.94875 0.9075 -1.4375 1.375 C-3.09027808 2.93258204 -3.09027808 2.93258204 -4 5 C-5.58941406 4.98259766 -5.58941406 4.98259766 -7.2109375 4.96484375 C-8.59895658 4.95546524 -9.98697755 4.94636511 -11.375 4.9375 C-12.42300781 4.92493164 -12.42300781 4.92493164 -13.4921875 4.91210938 C-17.37295376 4.8164558 -17.37295376 4.8164558 -21 6 C-22.70702735 6.06996014 -24.41668003 6.08440154 -26.125 6.0625 C-27.03507812 6.05347656 -27.94515625 6.04445313 -28.8828125 6.03515625 C-29.58148438 6.02355469 -30.28015625 6.01195312 -31 6 C-31 5.67 -31 5.34 -31 5 C-26.77231562 4.15902586 -22.54263344 3.32855975 -18.3125 2.5 C-17.11431641 2.26152344 -15.91613281 2.02304687 -14.68164062 1.77734375 C-12.94624023 1.43896484 -12.94624023 1.43896484 -11.17578125 1.09375 C-10.11270752 0.88427734 -9.04963379 0.67480469 -7.9543457 0.45898438 C-5.24119577 0.03747195 -2.73887341 -0.08856503 0 0 Z " fill="#28A778" transform="translate(104,419)"/>
<path d="M0 0 C0.66 0.33 1.32 0.66 2 1 C1.484375 1.598125 0.96875 2.19625 0.4375 2.8125 C-0.2740625 3.8953125 -0.2740625 3.8953125 -1 5 C-0.67 5.99 -0.34 6.98 0 8 C-0.33 8.66 -0.66 9.32 -1 10 C-3.475 9.01 -3.475 9.01 -6 8 C-6.226875 8.886875 -6.45375 9.77375 -6.6875 10.6875 C-8.17188513 14.43380532 -10.02403485 16.33729434 -13 19 C-13.66 18.67 -14.32 18.34 -15 18 C-10.44932654 11.46357812 -5.8866325 5.38994789 0 0 Z " fill="#23A678" transform="translate(78,109)"/>
<path d="M0 0 C-0.33 1.98 -0.66 3.96 -1 6 C-3.66666667 6.66666667 -6.33333333 7.33333333 -9 8 C-9 7.34 -9 6.68 -9 6 C-9.66 6 -10.32 6 -11 6 C-10.6130131 3.75547595 -10.08035336 2.12945819 -8.875 0.1875 C-5.88367023 -1.70700885 -3.32900597 -0.69092577 0 0 Z " fill="#13B178" transform="translate(128,181)"/>
<path d="M0 0 C-2.64738916 1.4606285 -3.89448334 2 -7 2 C-7.73080266 3.97746603 -8.39421747 5.98072489 -9 8 C-8.67 8.66 -8.34 9.32 -8 10 C-7.68341615 14.73944653 -7.80889653 19.38447404 -9 24 C-9.33 24 -9.66 24 -10 24 C-10.33801152 21.45887768 -10.67053379 18.91723254 -11 16.375 C-11.09539063 15.66214844 -11.19078125 14.94929688 -11.2890625 14.21484375 C-11.81606101 10.11178391 -12.10466984 6.14754258 -12 2 C-7.8803623 0.70756464 -4.33168317 -0.26252625 0 0 Z " fill="#28A67B" transform="translate(22,425)"/>
<path d="M0 0 C0 0.66 0 1.32 0 2 C-4.44746359 5.71143368 -8.94873122 5.47130903 -14.45703125 5.51171875 C-15.81147591 5.53864555 -15.81147591 5.53864555 -17.19328308 5.56611633 C-20.06630844 5.62013021 -22.93916851 5.65408637 -25.8125 5.6875 C-27.76499691 5.72068096 -29.71747204 5.75517134 -31.66992188 5.79101562 C-36.44649516 5.8758516 -41.22302018 5.94270536 -46 6 C-46 5.34 -46 4.68 -46 4 C-44.26713745 3.97812622 -44.26713745 3.97812622 -42.49926758 3.95581055 C-38.20322088 3.89773178 -33.90769306 3.8204995 -29.61206055 3.73754883 C-27.7547245 3.70434451 -25.89728863 3.67629859 -24.03979492 3.65356445 C-21.36594202 3.61993558 -18.69300007 3.56761626 -16.01953125 3.51171875 C-15.19226028 3.50532883 -14.36498932 3.4989389 -13.51264954 3.49235535 C-8.42823823 3.36339896 -4.43452767 0 0 0 Z " fill="#23A879" transform="translate(446,236)"/>
<path d="M0 0 C2.875 1.5 2.875 1.5 4.125 4.0625 C4.3725 4.866875 4.62 5.67125 4.875 6.5 C5.535 6.83 6.195 7.16 6.875 7.5 C6.875 8.16 6.875 8.82 6.875 9.5 C3.30459697 8.84097701 0.69767745 7.33770842 -2.375 5.4375 C-3.26703125 4.88964844 -4.1590625 4.34179688 -5.078125 3.77734375 C-5.75359375 3.35582031 -6.4290625 2.93429688 -7.125 2.5 C-3.515625 -0.5625 -3.515625 -0.5625 0 0 Z " fill="#1FAB79" transform="translate(90.125,235.5)"/>
<path d="M0 0 C5.59753384 4.54799625 10.3143947 9.52331848 15 15 C14.01 15.33 13.02 15.66 12 16 C12 15.34 12 14.68 12 14 C11.34 14 10.68 14 10 14 C9.5875 13.175 9.175 12.35 8.75 11.5 C8.1725 10.675 7.595 9.85 7 9 C3.87364791 8.58253392 3.87364791 8.58253392 1 9 C-1.125 3.375 -1.125 3.375 0 0 Z " fill="#1EAA79" transform="translate(377,69)"/>
<path d="M0 0 C2.33944736 0.28730055 4.6739143 0.61936779 7 1 C7 1.33 7 1.66 7 2 C5.4176994 2.33820166 3.83410625 2.67035939 2.25 3 C0.92742187 3.2784375 0.92742187 3.2784375 -0.421875 3.5625 C-3 4 -3 4 -7 4 C-7.19335938 4.59167969 -7.38671875 5.18335938 -7.5859375 5.79296875 C-8.94414719 9.9146645 -10.32050585 13.9950524 -12 18 C-12.6875 16.4375 -12.6875 16.4375 -13 14 C-12.05719096 11.6429774 -11.05352843 9.30965848 -10 7 C-9.30859478 4.22111387 -9.30859478 4.22111387 -9 2 C-6.94921875 1.77213542 -4.8984375 1.54427083 -2.84765625 1.31640625 C-0.98859771 1.18113386 -0.98859771 1.18113386 0 0 Z " fill="#28A377" transform="translate(218,192)"/>
<path d="M0 0 C0.66 0.33 1.32 0.66 2 1 C1.67 2.32 1.34 3.64 1 5 C0.34 5 -0.32 5 -1 5 C-0.505 5.45375 -0.01 5.9075 0.5 6.375 C2 8 2 8 2 10 C4.91652174 10.16681109 4.91652174 10.16681109 8 10 C10.35953094 7.64046906 10.49141413 6.22104383 11 3 C11.33 3 11.66 3 12 3 C12.3125 5.75 12.3125 5.75 12 9 C9.875 11.4375 9.875 11.4375 7 13 C3.49267067 13 1.7565302 12.6345092 -0.9375 10.375 C-2.45481527 6.98335411 -1.80518298 4.55622484 -1 1 C-0.67 0.67 -0.34 0.34 0 0 Z " fill="#2FA279" transform="translate(124,140)"/>
<path d="M0 0 C0 0.66 0 1.32 0 2 C-1.39025391 2.09087891 -1.39025391 2.09087891 -2.80859375 2.18359375 C-4.00613281 2.26738281 -5.20367187 2.35117187 -6.4375 2.4375 C-7.63246094 2.51871094 -8.82742188 2.59992187 -10.05859375 2.68359375 C-12.88570244 2.67656114 -12.88570244 2.67656114 -14 4 C-15.57263797 4.39898408 -17.15895601 4.74476192 -18.75 5.0625 C-19.61109375 5.23910156 -20.4721875 5.41570313 -21.359375 5.59765625 C-23.95248391 5.99276012 -26.38176202 6.07063592 -29 6 C-20.73235408 0.48823605 -9.68859512 -0.16997535 0 0 Z " fill="#29A47A" transform="translate(307,45)"/>
<path d="M0 0 C0.99 0.33 1.98 0.66 3 1 C2.5 3.3125 2.5 3.3125 1 6 C-2.11762636 7.69091599 -5.42853507 9 -9 9 C-9.33 7.68 -9.66 6.36 -10 5 C-8.68 5 -7.36 5 -6 5 C-6 4.34 -6 3.68 -6 3 C-4.02 3.66 -2.04 4.32 0 5 C0 3.35 0 1.7 0 0 Z " fill="#1EAB79" transform="translate(93,289)"/>
<path d="M0 0 C0.33 0 0.66 0 1 0 C1 3.96 1 7.92 1 12 C0.34 12 -0.32 12 -1 12 C-0.938125 13.794375 -0.938125 13.794375 -0.875 15.625 C-0.86148292 19.42329953 -1.57990247 22.44975618 -3 26 C-3.33 26 -3.66 26 -4 26 C-3.57483041 17.04211664 -2.25824035 8.67789216 0 0 Z " fill="#25A479" transform="translate(54,145)"/>
<path d="M0 0 C0.5534764 2.07553648 1 3.84365964 1 6 C-0.99330842 7.34331654 -2.99384866 8.67594012 -5 10 C-5.99 11.485 -5.99 11.485 -7 13 C-7.99 13 -8.98 13 -10 13 C-8.48446596 9.52224821 -6.4226544 7.0442016 -3.875 4.25 C-3.15054688 3.45078125 -2.42609375 2.6515625 -1.6796875 1.828125 C-0.84824219 0.92320313 -0.84824219 0.92320313 0 0 Z " fill="#1EAC7A" transform="translate(244,71)"/>
<path d="M0 0 C3.1875 -0.3125 3.1875 -0.3125 7 0 C9.75 2.4375 9.75 2.4375 12 5 C12.99 5.33 13.98 5.66 15 6 C14.67 6.99 14.34 7.98 14 9 C9.07531399 6.65014982 4.42413794 4.2075 0 1 C0 0.67 0 0.34 0 0 Z " fill="#21A878" transform="translate(453,324)"/>
<path d="M0 0 C6.87787215 0.0273474 13.204637 0.11050647 19.8046875 2.265625 C20.1346875 4.245625 20.4646875 6.225625 20.8046875 8.265625 C20.2684375 7.8325 19.7321875 7.399375 19.1796875 6.953125 C11.18849235 1.27517055 4.18759465 1.6369935 -5.1953125 2.265625 C-3.1953125 0.265625 -3.1953125 0.265625 0 0 Z " fill="#2BA67A" transform="translate(305.1953125,290.734375)"/>
<path d="M0 0 C0.66 0.33 1.32 0.66 2 1 C0.33333333 2.66666667 -1.33333333 4.33333333 -3 6 C-3.825 6.928125 -4.65 7.85625 -5.5 8.8125 C-8 11 -8 11 -10.8125 11.3125 C-11.534375 11.209375 -12.25625 11.10625 -13 11 C-9.57933564 5.94336573 -5.08997609 3.16492103 0 0 Z " fill="#24A679" transform="translate(260,59)"/>
<path d="M0 0 C4.66666667 2.33333333 9.33333333 4.66666667 14 7 C14 7.33 14 7.66 14 8 C11.23735711 8.59732819 8.83967231 9 6 9 C4.98133771 7.34467377 3.98189187 5.67739862 3 4 C2.01 3.67 1.02 3.34 0 3 C0 2.01 0 1.02 0 0 Z " fill="#1FAB78" transform="translate(279,180)"/>
<path d="M0 0 C4.71484816 7.07227224 7.50187047 15.53179805 8 24 C5.06726519 21.06726519 4.81417842 17.69211651 3.87890625 13.7265625 C2.97579285 10.92490405 1.74619325 9.32504184 0 7 C-0.1875 3.25 -0.1875 3.25 0 0 Z " fill="#26A679" transform="translate(401,100)"/>
<path d="M0 0 C-0.66 0.66 -1.32 1.32 -2 2 C-4.91952568 1.98251781 -7.72297885 1.86055367 -10.625 1.625 C-11.42679688 1.56828125 -12.22859375 1.5115625 -13.0546875 1.453125 C-15.03715498 1.31152018 -17.01869051 1.15697741 -19 1 C-19 5.95 -19 10.9 -19 16 C-19.33 16 -19.66 16 -20 16 C-20 10.72 -20 5.44 -20 0 C-17.22949974 -0.1946838 -14.45886998 -0.38102792 -11.6875 -0.5625 C-10.90181641 -0.61857422 -10.11613281 -0.67464844 -9.30664062 -0.73242188 C-8.1706543 -0.80493164 -8.1706543 -0.80493164 -7.01171875 -0.87890625 C-6.31522217 -0.9260376 -5.61872559 -0.97316895 -4.90112305 -1.02172852 C-3 -1 -3 -1 0 0 Z " fill="#22AB7B" transform="translate(230,314)"/>
<path d="M0 0 C3.375 0.625 3.375 0.625 7 2 C8.25 5.0625 8.25 5.0625 9 8 C9.99 8.33 10.98 8.66 12 9 C11.67 10.65 11.34 12.3 11 14 C10.484375 13.34 9.96875 12.68 9.4375 12 C6.84274087 8.8064503 4.13386893 5.73785351 1.390625 2.671875 C0 1 0 1 0 0 Z " fill="#28A579" transform="translate(158,136)"/>
<path d="M0 0 C0.66 0.33 1.32 0.66 2 1 C0.515 4.96 0.515 4.96 -1 9 C-0.34 9 0.32 9 1 9 C1.66 10.32 2.32 11.64 3 13 C5.97 13 8.94 13 12 13 C10 15 10 15 6.125 15.375 C3.19149292 15.27899431 2.08758464 15.05255079 -0.5 13.5 C-2.73587506 9.77354157 -2.41151261 7.32088243 -2 3 C-1.34 2.01 -0.68 1.02 0 0 Z " fill="#32A07B" transform="translate(325,123)"/>
<path d="M0 0 C0.99 0 1.98 0 3 0 C3 0.66 3 1.32 3 2 C3.598125 2.28875 4.19625 2.5775 4.8125 2.875 C7 4 7 4 10 6 C9.67 6.66 9.34 7.32 9 8 C9.66 8.33 10.32 8.66 11 9 C10.67 11.64 10.34 14.28 10 17 C9.67 17 9.34 17 9 17 C8.84144531 16.33613281 8.68289062 15.67226563 8.51953125 14.98828125 C7.01518304 9.29502974 5.6349692 5.90313196 1 2 C0.67 1.34 0.34 0.68 0 0 Z " fill="#25A67A" transform="translate(235,265)"/>
<path d="M0 0 C3.32311195 0.18126065 5.98728092 0.39236855 8.875 2.125 C10.56642211 4.94403684 10.69526149 7.76977183 11 11 C10.67 10.01 10.34 9.02 10 8 C9.34 8 8.68 8 8 8 C8 7.01 8 6.02 8 5 C6.68 4.67 5.36 4.34 4 4 C4 3.67 4 3.34 4 3 C1.03 2.505 1.03 2.505 -2 2 C-1.34 1.34 -0.68 0.68 0 0 Z " fill="#29A278" transform="translate(329,121)"/>
<path d="M0 0 C0.99 2.31 1.98 4.62 3 7 C-1.72224516 5.46527032 -6.35855331 3.76054874 -11 2 C-11 1.67 -11 1.34 -11 1 C-7.27569643 0.30710631 -3.78916254 -0.11144596 0 0 Z " fill="#1CAA78" transform="translate(334,92)"/>
<path d="M0 0 C2.9156164 3.54039134 5.50127818 7.1626772 8 11 C5.69 11 3.38 11 1 11 C1.33 9.35 1.66 7.7 2 6 C1.34 5.67 0.68 5.34 0 5 C0 3.35 0 1.7 0 0 Z " fill="#1DAB79" transform="translate(97,186)"/>
<path d="M0 0 C0.33 0 0.66 0 1 0 C1.33 4.95 1.66 9.9 2 15 C1.01 15.33 0.02 15.66 -1 16 C-1 17.65 -1 19.3 -1 21 C-1.66 20.67 -2.32 20.34 -3 20 C-2.01 13.4 -1.02 6.8 0 0 Z " fill="#29A578" transform="translate(138,392)"/>
<path d="M0 0 C1.9375 0.6875 1.9375 0.6875 4 2 C5.09942999 5.84454762 5.13422251 9.58298493 5.125 13.5625 C5.12757813 14.67753906 5.13015625 15.79257812 5.1328125 16.94140625 C5.02206147 19.49193728 4.7467862 21.57590829 4 24 C3.34 24 2.68 24 2 24 C2.15984375 23.28457031 2.3196875 22.56914062 2.484375 21.83203125 C3.91984015 13.94784766 3.29465074 7.27568705 0 0 Z " fill="#2DA27A" transform="translate(326,299)"/>
<path d="M0 0 C-1.625 5.75 -1.625 5.75 -5 8 C-5 7.34 -5 6.68 -5 6 C-6.65 6 -8.3 6 -10 6 C-7.35570758 3.077361 -4.105808 0 0 0 Z " fill="#1FAA7A" transform="translate(456,230)"/>
<path d="M0 0 C0.99 0.33 1.98 0.66 3 1 C2.06409496 2.1055189 1.12620142 3.20935453 0.1875 4.3125 C-0.33457031 4.92738281 -0.85664062 5.54226562 -1.39453125 6.17578125 C-2.87172469 7.85424679 -4.40039131 9.43882034 -6 11 C-6.125 7.625 -6.125 7.625 -6 4 C-5.34 3.34 -4.68 2.68 -4 2 C-4 2.66 -4 3.32 -4 4 C-3.01 4 -2.02 4 -1 4 C-0.67 2.68 -0.34 1.36 0 0 Z " fill="#25A678" transform="translate(105,135)"/>
<path d="M0 0 C0.33 0 0.66 0 1 0 C0.85973717 2.31284456 0.71264442 4.62527591 0.5625 6.9375 C0.48128906 8.22527344 0.40007812 9.51304688 0.31640625 10.83984375 C0 14 0 14 -1 15 C-2.51928038 15.07179964 -4.04167482 15.08392007 -5.5625 15.0625 C-6.38878906 15.05347656 -7.21507812 15.04445312 -8.06640625 15.03515625 C-8.70449219 15.02355469 -9.34257812 15.01195312 -10 15 C-10 14.67 -10 14.34 -10 14 C-7.36 13.67 -4.72 13.34 -2 13 C-1.93941406 12.39671875 -1.87882813 11.7934375 -1.81640625 11.171875 C-1.73261719 10.37265625 -1.64882812 9.5734375 -1.5625 8.75 C-1.48128906 7.96109375 -1.40007812 7.1721875 -1.31640625 6.359375 C-1.02365007 4.17635361 -0.57935581 2.1226818 0 0 Z " fill="#2BA379" transform="translate(217,114)"/>
<path d="M0 0 C-0.33 1.65 -0.66 3.3 -1 5 C-5.455 5.495 -5.455 5.495 -10 6 C-2.6 0 -2.6 0 0 0 Z " fill="#27A479" transform="translate(490,209)"/>
<path d="M0 0 C0 0.33 0 0.66 0 1 C-1.98 1 -3.96 1 -6 1 C-6 1.66 -6 2.32 -6 3 C-6.99 3.495 -6.99 3.495 -8 4 C-8.33 4.66 -8.66 5.32 -9 6 C-9.66 5.67 -10.32 5.34 -11 5 C-11 7.31 -11 9.62 -11 12 C-11.33 12 -11.66 12 -12 12 C-12.48 4.8 -12.48 4.8 -10.5 1.5 C-6.85991277 -0.68405234 -4.20345267 -0.28023018 0 0 Z " fill="#2BA679" transform="translate(332,150)"/>
<path d="M0 0 C0.98120464 3.05263664 0.98120464 4.94736336 0 8 C-0.66 8 -1.32 8 -2 8 C-2 8.99 -2 9.98 -2 11 C-2.99 11 -3.98 11 -5 11 C-3.77472971 6.94718288 -2.30119506 3.55639236 0 0 Z " fill="#24A879" transform="translate(228,91)"/>
<path d="M0 0 C0.33 0 0.66 0 1 0 C1.22127098 2.29045368 1.4266504 4.58244764 1.625 6.875 C1.74101562 8.15117187 1.85703125 9.42734375 1.9765625 10.7421875 C1.98429687 11.81726563 1.99203125 12.89234375 2 14 C0 16 0 16 -3.625 16.125 C-4.73875 16.08375 -5.8525 16.0425 -7 16 C-7 15.67 -7 15.34 -7 15 C-5.02 15 -3.04 15 -1 15 C-0.67 10.05 -0.34 5.1 0 0 Z " fill="#29A87C" transform="translate(278,316)"/>
<path d="M0 0 C0 3.61537605 -0.89229241 5.11165997 -3 8 C-3.99 8 -4.98 8 -6 8 C-6 8.66 -6 9.32 -6 10 C-7.65 10 -9.3 10 -11 10 C-10.29875 9.46375 -9.5975 8.9275 -8.875 8.375 C-5.69584371 5.74874046 -2.880978 2.94797749 0 0 Z " fill="#2DA177" transform="translate(163,193)"/>
<path d="M0 0 C4.50884026 2.31883213 6.93906776 5.06451569 10 9 C8.68 8.67 7.36 8.34 6 8 C6 7.34 6 6.68 6 6 C5.195625 5.7525 4.39125 5.505 3.5625 5.25 C1 4 1 4 0.1875 1.875 C0.125625 1.25625 0.06375 0.6375 0 0 Z " fill="#29A377" transform="translate(183,107)"/>
<path d="M0 0 C0.66 2.31 1.32 4.62 2 7 C-1.45925163 5.7508258 -4.14693203 4.32472205 -7 2 C-2.25 0 -2.25 0 0 0 Z " fill="#23A979" transform="translate(156,129)"/>
<path d="M0 0 C0.33 0.66 0.66 1.32 1 2 C-3.18461538 7.78461538 -3.18461538 7.78461538 -7.3125 8.875 C-8.6428125 8.936875 -8.6428125 8.936875 -10 9 C-9.278125 8.443125 -8.55625 7.88625 -7.8125 7.3125 C-5.02542701 5.02090666 -2.51358472 2.58540143 0 0 Z " fill="#2AA178" transform="translate(327,324)"/>
<path d="M0 0 C0 0.66 0 1.32 0 2 C-1.65 2.33 -3.3 2.66 -5 3 C-5 3.66 -5 4.32 -5 5 C-6.98 5.33 -8.96 5.66 -11 6 C-8.24029211 2.78034079 -4.3526723 0 0 0 Z " fill="#2AA177" transform="translate(273,53)"/>
<path d="M0 0 C1.98 0.66 3.96 1.32 6 2 C4.35 3.65 2.7 5.3 1 7 C1 5.68 1 4.36 1 3 C0.34 3 -0.32 3 -1 3 C-0.67 2.01 -0.34 1.02 0 0 Z " fill="#21A677" transform="translate(379,209)"/>
<path d="M0 0 C0.99 0.495 0.99 0.495 2 1 C2 1.66 2 2.32 2 3 C2.99 3.33 3.98 3.66 5 4 C5 6.31 5 8.62 5 11 C0 4.63636364 0 4.63636364 0 0 Z " fill="#29A277" transform="translate(57,202)"/>
<path d="M0 0 C0.66 0.33 1.32 0.66 2 1 C0.35 3.64 -1.3 6.28 -3 9 C-3.92538169 5.29847322 -4.08174162 4.36541838 -3 1 C-2.01 1.33 -1.02 1.66 0 2 C0 1.34 0 0.68 0 0 Z " fill="#25A679" transform="translate(397,192)"/>
<path d="M0 0 C0.33 0.99 0.66 1.98 1 3 C-0.07107117 3.86949317 -1.15745944 4.72014205 -2.25 5.5625 C-2.85328125 6.03816406 -3.4565625 6.51382812 -4.078125 7.00390625 C-6 8 -6 8 -8.234375 7.65234375 C-8.81703125 7.43707031 -9.3996875 7.22179687 -10 7 C-9.0925 6.5875 -8.185 6.175 -7.25 5.75 C-4.20334382 4.10949282 -2.28873194 2.55281639 0 0 Z " fill="#299D78" transform="translate(240,305)"/>
<path d="M0 0 C3.12687408 4.69031112 4.2610462 7.25698366 4 13 C1.27835324 10.27835324 0.89427524 7.70485455 0 4 C0 2.68 0 1.36 0 0 Z " fill="#2BA37A" transform="translate(53,189)"/>
<path d="M0 0 C1.1875 1.6875 1.1875 1.6875 2 4 C0.6875 6.75 0.6875 6.75 -1 9 C-1.33 9 -1.66 9 -2 9 C-2.125 5.625 -2.125 5.625 -2 2 C-1.34 1.34 -0.68 0.68 0 0 Z " fill="#23A778" transform="translate(119,160)"/>
<path d="M0 0 C5.625 -0.25 5.625 -0.25 9 2 C9 2.66 9 3.32 9 4 C7.68 4 6.36 4 5 4 C5 3.34 5 2.68 5 2 C3.35 1.67 1.7 1.34 0 1 C0 0.67 0 0.34 0 0 Z " fill="#2BA479" transform="translate(126,139)"/>
<path d="M0 0 C0.556875 0.9590625 0.556875 0.9590625 1.125 1.9375 C3.58052793 4.63858072 5.44578805 4.68407005 9 5 C9 5.33 9 5.66 9 6 C4.545 6.495 4.545 6.495 0 7 C0 4.69 0 2.38 0 0 Z " fill="#2EA17A" transform="translate(13,449)"/>
<path d="M0 0 C1.5 1.25 1.5 1.25 3 3 C3 7 3 7 2 9 C0.3372974 6.32521756 -0.99983813 4.0004856 -2 1 C-1.34 0.67 -0.68 0.34 0 0 Z " fill="#1FAB79" transform="translate(244,209)"/>
<path d="M0 0 C0.66 0 1.32 0 2 0 C2.66 1.65 3.32 3.3 4 5 C4.66 5 5.32 5 6 5 C6.33 5.99 6.66 6.98 7 8 C6.34 8.66 5.68 9.32 5 10 C3.35 6.7 1.7 3.4 0 0 Z " fill="#2EA479" transform="translate(351,112)"/>
<path d="M0 0 C0.33 0.66 0.66 1.32 1 2 C0.06553465 4.03144641 -0.93224776 6.03533587 -2 8 C-2.99 8 -3.98 8 -5 8 C-3.62845496 5.04590299 -2.01136276 2.55991624 0 0 Z " fill="#26A476" transform="translate(239,76)"/>
<path d="M0 0 C0 0.99 0 1.98 0 3 C-0.66 3.66 -1.32 4.32 -2 5 C-2.66 4.67 -3.32 4.34 -4 4 C-4 4.66 -4 5.32 -4 6 C-4.99 5.67 -5.98 5.34 -7 5 C-2.25 1.125 -2.25 1.125 0 0 Z " fill="#23A878" transform="translate(479,215)"/>
<path d="M0 0 C2.64 0.66 5.28 1.32 8 2 C8 2.66 8 3.32 8 4 C5.69 3.67 3.38 3.34 1 3 C0.67 2.01 0.34 1.02 0 0 Z " fill="#2BA77C" transform="translate(141,184)"/>
<path d="M0 0 C0.99 0.33 1.98 0.66 3 1 C2.3125 3.4375 2.3125 3.4375 1 6 C-1.625 6.8125 -1.625 6.8125 -4 7 C-2.68 6.34 -1.36 5.68 0 5 C0 3.35 0 1.7 0 0 Z " fill="#26A377" transform="translate(93,289)"/>
<path d="M0 0 C3.11198065 1.49836105 6.0534615 3.19933758 9 5 C8.01 5.495 8.01 5.495 7 6 C4.64018187 5.06421005 2.30368736 4.06652192 0 3 C0 2.01 0 1.02 0 0 Z " fill="#28A077" transform="translate(279,180)"/>
<path d="M0 0 C2.475 0.495 2.475 0.495 5 1 C5.33 2.98 5.66 4.96 6 7 C1.125 2.25 1.125 2.25 0 0 Z " fill="#26A779" transform="translate(345,105)"/>
<path d="M0 0 C3.3125 -0.25 3.3125 -0.25 7 0 C7.99 1.32 8.98 2.64 10 4 C6.7 3.01 3.4 2.02 0 1 C0 0.67 0 0.34 0 0 Z " fill="#2BA37A" transform="translate(323,93)"/>
</svg>
