<?xml version="1.0" encoding="UTF-8"?>
<svg version="1.1" xmlns="http://www.w3.org/2000/svg" width="500" height="80">
<path d="M0 0 C5.40768471 -0.07455448 10.81506548 -0.12879227 16.22314453 -0.16479492 C18.06011166 -0.17981496 19.89704334 -0.20023709 21.73388672 -0.22631836 C24.38518054 -0.26300202 27.03599732 -0.27979438 29.6875 -0.29296875 C30.49928711 -0.30845261 31.31107422 -0.32393646 32.14746094 -0.33988953 C38.93118162 -0.34185971 44.43634003 0.89210181 49.8125 5.3125 C56.50218082 13.53125072 56.60823108 21.7727071 56 32 C54.88519687 38.46207917 52.11528399 43.81476765 47 48 C39.43927463 52.62867937 29.50219164 51.26355818 21 51 C21 55.95 21 60.9 21 66 C14.07 66 7.14 66 0 66 C-1.39066535 63.21866931 -1.07662585 61.00879809 -1.02172852 57.89794922 C-1.00163223 56.61677216 -0.98153595 55.33559509 -0.96083069 54.01559448 C-0.93363222 52.61195669 -0.90632141 51.20832107 -0.87890625 49.8046875 C-0.85460772 48.3726577 -0.83076403 46.94062011 -0.80735779 45.50857544 C-0.74449015 41.73719423 -0.67543117 37.96595062 -0.60510254 34.19470215 C-0.53444323 30.34731316 -0.4696119 26.49982652 -0.40429688 22.65234375 C-0.27525002 15.1014545 -0.13966532 7.55070109 0 0 Z M21 18 C21 22.95 21 27.9 21 33 C26.67675932 33.38435046 26.67675932 33.38435046 32 32 C32.8814688 29.35559361 33.16174818 27.71939248 33.1875 25 C33.20876953 23.9790625 33.20876953 23.9790625 33.23046875 22.9375 C33.10940411 20.67385868 33.10940411 20.67385868 31 18 C28.56306689 17.63583953 28.56306689 17.63583953 25.875 17.8125 C24.26625 17.874375 22.6575 17.93625 21 18 Z " fill="#000000" transform="translate(6,9)"/>
<path d="M0 0 C5.82398703 3.94113179 8.74877146 8.73815896 10.4765625 15.515625 C12.0801853 25.09727123 11.68412747 35.51856085 6.9140625 44.19140625 C2.84226087 49.69384089 -3.47247126 52.31765957 -10.0546875 53.31640625 C-18.45311656 53.81043149 -26.30761981 53.96208516 -34.0546875 50.31640625 C-34.9828125 49.88328125 -35.9109375 49.45015625 -36.8671875 49.00390625 C-42.28005795 44.82826333 -44.49267783 38.847096 -45.5390625 32.2734375 C-46.35936911 22.56245479 -46.34621869 13.32375251 -40.61328125 5.0390625 C-31.39310122 -5.1516628 -11.77758953 -5.88879476 0 0 Z M-22.0546875 14.31640625 C-22.0546875 21.90640625 -22.0546875 29.49640625 -22.0546875 37.31640625 C-19.0846875 36.98640625 -16.1146875 36.65640625 -13.0546875 36.31640625 C-13.0546875 28.72640625 -13.0546875 21.13640625 -13.0546875 13.31640625 C-19.38386711 12.79465706 -19.38386711 12.79465706 -22.0546875 14.31640625 Z " fill="#000000" transform="translate(143.0546875,23.68359375)"/>
<path d="M0 0 C3.21070608 3.54284809 4.12703765 6.66385868 4.11352539 11.37963867 C4.11344986 12.26032516 4.11337433 13.14101166 4.11329651 14.04838562 C4.10813522 14.99534805 4.10297394 15.94231049 4.09765625 16.91796875 C4.0962413 17.89034988 4.09482635 18.86273102 4.09336853 19.86457825 C4.08776817 22.97225004 4.07521562 26.07984996 4.0625 29.1875 C4.05748505 31.29361875 4.05292213 33.39973863 4.04882812 35.50585938 C4.03864925 40.67062293 4.01907383 45.83523094 4 51 C-3.26 51 -10.52 51 -18 51 C-18 39.12 -18 27.24 -18 15 C-25.28373595 15.07908908 -25.28373595 15.07908908 -27 17 C-27.15988491 19.51880517 -27.25934225 22.01342266 -27.31640625 24.53515625 C-27.33718735 25.28840683 -27.35796844 26.04165741 -27.37937927 26.81773376 C-27.44495425 29.2325599 -27.50379621 31.64749798 -27.5625 34.0625 C-27.6056777 35.69597529 -27.64929173 37.3294391 -27.69335938 38.96289062 C-27.80146797 42.97514718 -27.90048114 46.98748424 -28 51 C-35.26 51 -42.52 51 -50 51 C-50 33.51 -50 16.02 -50 -2 C-46.04 -2 -42.08 -2 -38 -2 C-36.68 -0.68 -35.36 0.64 -34 2 C-33.34 1.731875 -32.68 1.46375 -32 1.1875 C-31.01 0.795625 -30.02 0.40375 -29 0 C-27.88625 -0.53625 -26.7725 -1.0725 -25.625 -1.625 C-17.47653262 -4.67290001 -7.45123643 -4.49927384 0 0 Z " fill="#000000" transform="translate(313,24)"/>
<path d="M0 0 C1.41925781 -0.01740234 1.41925781 -0.01740234 2.8671875 -0.03515625 C9.18954891 -0.00888605 15.53966493 0.38684915 20.55834961 4.72070312 C23.30951909 7.77138919 24.71611474 10.30597799 25 14.375 C25.061875 15.0453125 25.12375 15.715625 25.1875 16.40625 C25.50291666 22.16260398 24.65053234 26.78843373 21 31.375 C13.91215339 37.24380665 2.7812222 37.53322022 -6 37.375 C-5.67 38.035 -5.34 38.695 -5 39.375 C1.40770671 39.62519245 7.27585522 39.13050561 13.5546875 37.8125 C16 37.375 16 37.375 20 37.375 C21.19088986 42.75527025 22.2919519 47.82791384 22 53.375 C9.74348865 57.12699327 -6.06756567 59.17850215 -18 53.375 C-18.9075 52.983125 -19.815 52.59125 -20.75 52.1875 C-26.80613767 47.30894465 -28.79533395 41.05052737 -29.78125 33.5234375 C-30.41968391 24.33454943 -29.7151653 14.19550079 -23.68359375 6.75 C-16.83189722 0.47705713 -8.78320986 -0.10769603 0 0 Z M-6 17.375 C-6 19.685 -6 21.995 -6 24.375 C-4.52031676 24.23450482 -3.04125484 24.08745174 -1.5625 23.9375 C-0.73878906 23.85628906 0.08492188 23.77507813 0.93359375 23.69140625 C2.98662025 23.58569185 2.98662025 23.58569185 4 22.375 C4.04080783 20.37541636 4.04254356 18.37454746 4 16.375 C2.72125 16.354375 1.4425 16.33375 0.125 16.3125 C-0.59429687 16.30089844 -1.31359375 16.28929687 -2.0546875 16.27734375 C-4.08185404 16.24850758 -4.08185404 16.24850758 -6 17.375 Z " fill="#000000" transform="translate(353,20.625)"/>
<path d="M0 0 C1.49273437 -0.0309375 1.49273437 -0.0309375 3.015625 -0.0625 C9.88158837 -0.09835359 15.38850943 0.98865466 21.875 3.25 C21.215 7.87 20.555 12.49 19.875 17.25 C16.43228857 18.39757048 15.35944462 17.98533797 11.875 17.25 C9.10844168 16.98777035 6.337085 16.83875084 3.5625 16.6875 C2.82193359 16.64431641 2.08136719 16.60113281 1.31835938 16.55664062 C-0.49591464 16.45129568 -2.3104355 16.35021684 -4.125 16.25 C-4.125 17.24 -4.125 18.23 -4.125 19.25 C-3.30257813 19.20359375 -2.48015625 19.1571875 -1.6328125 19.109375 C5.96405307 18.86374886 12.24476131 19.28460724 18.875 23.25 C23.31990486 27.80331717 24.04568151 30.73383929 24.125 37 C24.15078125 38.21171875 24.1765625 39.4234375 24.203125 40.671875 C23.74611437 45.65546706 22.16152342 48.92671877 18.6875 52.5 C12.18550385 56.5456865 5.05949837 56.57633788 -2.375 56.5 C-3.75619019 56.49311157 -3.75619019 56.49311157 -5.1652832 56.48608398 C-21.07538508 56.27480746 -21.07538508 56.27480746 -27.125 53.25 C-26.81677379 50.9577546 -26.50329126 48.66621545 -26.1875 46.375 C-26.01347656 45.09882812 -25.83945312 43.82265625 -25.66015625 42.5078125 C-25.125 39.25 -25.125 39.25 -24.125 37.25 C-23.43277344 37.38277344 -22.74054688 37.51554687 -22.02734375 37.65234375 C-13.72171321 39.15151553 -5.54203145 39.81305028 2.875 40.25 C2.875 39.26 2.875 38.27 2.875 37.25 C2.25753906 37.27320313 1.64007813 37.29640625 1.00390625 37.3203125 C-7.71813933 37.5061704 -15.12454888 36.91703186 -22.125 31.25 C-26.31605934 26.6253828 -26.4344466 21.80614045 -26.328125 15.78125 C-26.02214338 11.96824824 -25.16145173 9.49559495 -23.125 6.25 C-15.807911 0.26893999 -9.13225981 0.04623929 0 0 Z " fill="#000000" transform="translate(409.125,20.75)"/>
<path d="M0 0 C0 4.29 0 8.58 0 13 C1.134375 12.979375 2.26875 12.95875 3.4375 12.9375 C7 13 7 13 8 14 C8.0989294 16.16480797 8.129711 18.33293785 8.125 20.5 C8.12886719 22.27890625 8.12886719 22.27890625 8.1328125 24.09375 C8 27 8 27 7 28 C4.69 28 2.38 28 0 28 C0 35.59 0 43.18 0 51 C1.98 51 3.96 51 6 51 C6.02684679 53.64590014 6.04676357 56.29153096 6.0625 58.9375 C6.07087891 59.69224609 6.07925781 60.44699219 6.08789062 61.22460938 C6.09652441 63.14994313 6.05224333 65.07535581 6 67 C5 68 5 68 1.46484375 68.01953125 C-13.96263884 67.43561228 -13.96263884 67.43561228 -20 63 C-22.15918306 58.97176013 -22.23377146 55.46814634 -22.1953125 50.94921875 C-22.19106766 49.96100883 -22.19106766 49.96100883 -22.18673706 48.95283508 C-22.17560924 46.86419938 -22.15051948 44.77600444 -22.125 42.6875 C-22.11496059 41.26498018 -22.10583642 39.8424536 -22.09765625 38.41992188 C-22.07569447 34.94647319 -22.04121646 31.47327967 -22 28 C-23.65 28 -25.3 28 -27 28 C-27 23.05 -27 18.1 -27 13 C-25.35 13 -23.7 13 -22 13 C-22 10.36 -22 7.72 -22 5 C-19.08503169 4.1602972 -16.1682814 3.32803997 -13.25 2.5 C-12.0125 2.14228516 -12.0125 2.14228516 -10.75 1.77734375 C-9.55117187 1.43896484 -9.55117187 1.43896484 -8.328125 1.09375 C-7.5949707 0.88427734 -6.86181641 0.67480469 -6.10644531 0.45898438 C-4 0 -4 0 0 0 Z " fill="#000000" transform="translate(185,9)"/>
<path d="M0 0 C0 18.15 0 36.3 0 55 C1.65 55 3.3 55 5 55 C5.02699725 57.27076842 5.04639453 59.54162821 5.0625 61.8125 C5.07410156 63.07707031 5.08570312 64.34164062 5.09765625 65.64453125 C5 69 5 69 4 72 C-13.46264368 71.57614943 -13.46264368 71.57614943 -20 67 C-22.21429516 63.69889907 -22.24812575 60.87747093 -22.24291992 56.9621582 C-22.24599655 55.74442215 -22.24907318 54.5266861 -22.25224304 53.27204895 C-22.24505753 51.96153061 -22.23787201 50.65101227 -22.23046875 49.30078125 C-22.22927625 47.94125919 -22.22882394 46.5817363 -22.2290802 45.22221375 C-22.22751845 42.37847712 -22.21924997 39.53486694 -22.20581055 36.69116211 C-22.18877255 33.03911364 -22.18499775 29.38720339 -22.18575573 25.73511982 C-22.18548444 22.93080822 -22.18001072 20.12652707 -22.17275429 17.32222557 C-22.16801076 15.31852463 -22.16629015 13.31481729 -22.16459656 11.31111145 C-22.15821671 10.10283188 -22.15183685 8.89455231 -22.14526367 7.6496582 C-22.14145187 6.58028519 -22.13764008 5.51091217 -22.13371277 4.40913391 C-22 2 -22 2 -21 1 C-19.1728322 0.7597393 -17.33709354 0.58363244 -15.5 0.4375 C-13.99953125 0.31181641 -13.99953125 0.31181641 -12.46875 0.18359375 C-8.31785949 -0.03610428 -4.15670052 0 0 0 Z " fill="#000000" transform="translate(89,5)"/>
<path d="M0 0 C4.5891071 2.76333331 8.41417041 7.29547852 10.140625 12.390625 C11.33085544 19.37676022 11.51213823 26.52349876 7.828125 32.75 C3.70149707 38.18743916 -0.68327322 41.30408302 -7.5 42.5 C-14.75884891 43.07609912 -20.10402242 41.66107664 -26.25 37.75 C-31.31723859 32.68276141 -33.20763306 27.3007702 -33.75 20.25 C-33.28476161 13.27142416 -31.87964016 8.32515254 -26.5625 3.5625 C-19.07832117 -2.53732205 -9.08613598 -3.97958669 0 0 Z " fill="#14B078" transform="translate(473.5,32.5)"/>
<path d="M0 0 C0 18.15 0 36.3 0 55 C1.65 55 3.3 55 5 55 C6.51833122 58.03666243 5.87743587 60.7091965 5.625 64.0625 C5.53476563 65.33222656 5.44453125 66.60195312 5.3515625 67.91015625 C5 71 5 71 4 72 C-4.65071339 72.05094649 -12.63416501 71.96066438 -20 67 C-21.38425411 64.23149177 -21.11959962 61.99580816 -21.11352539 58.89794922 C-21.11344986 57.61677216 -21.11337433 56.33559509 -21.11329651 55.01559448 C-21.10818948 53.61195843 -21.10297348 52.20832277 -21.09765625 50.8046875 C-21.09579146 49.37265065 -21.09436784 47.94061316 -21.09336853 46.50857544 C-21.08954819 42.73726646 -21.07972202 38.96599593 -21.06866455 35.19470215 C-21.05844005 31.34725464 -21.05386868 27.49980093 -21.04882812 23.65234375 C-21.03809933 16.10154497 -21.02102869 8.55077787 -21 1 C-19.18796972 0.8283017 -17.37533777 0.66295171 -15.5625 0.5 C-14.55316406 0.4071875 -13.54382813 0.314375 -12.50390625 0.21875 C-8.34339972 -0.04099177 -4.16860652 0 0 0 Z " fill="#000000" transform="translate(221,5)"/>
<path d="M0 0 C0 17.49 0 34.98 0 53 C-7.26 53 -14.52 53 -22 53 C-22 36.5 -22 20 -22 3 C-7 0 -7 0 0 0 Z " fill="#000000" transform="translate(254,22)"/>
<path d="M0 0 C3.375 2.0625 3.375 2.0625 5 5 C5.41753358 8.3999163 5.21932782 10.98560881 4.5 14.3125 C1.94827725 17.1831881 -1.34355865 17.61256251 -5 18 C-9.40452983 18 -13.35107759 17.89967023 -17.26953125 15.76171875 C-19 14 -19 14 -19.49609375 11.625 C-19.47675781 10.75875 -19.45742187 9.8925 -19.4375 9 C-19.43621094 8.13375 -19.43492187 7.2675 -19.43359375 6.375 C-18.92433965 3.58557216 -18.20311114 2.72370554 -16 1 C-11.32854381 -1.3357281 -5.07157398 -0.51008894 0 0 Z " fill="#010101" transform="translate(250,4)"/>
<path d="M0 0 C0 3.53060249 -1.2632025 5.25275928 -3.04296875 8.21484375 C-4.22785306 10.42501571 -4.69941412 12.52016648 -5 15 C-5.66 15 -6.32 15 -7 15 C-5.87302957 19.96911366 -5.87302957 19.96911366 -3 24 C-3.33 24.66 -3.66 25.32 -4 26 C-3.34 26.33 -2.68 26.66 -2 27 C-2.99 27.99 -3.98 28.98 -5 30 C-8.11883004 21.81307114 -8.98721973 15.49139924 -6 7.08984375 C-4.51322788 3.98272232 -2.62603077 2.20018794 0 0 Z " fill="#2AA178" transform="translate(448,35)"/>
<path d="M0 0 C6.93 0 13.86 0 21 0 C16.18848898 3.20767401 11.73412331 3.47235115 6 3 C2.5 2 2.5 2 0 1 C0 0.67 0 0.34 0 0 Z " fill="#2A9F76" transform="translate(452,72)"/>
<path d="M0 0 C-0.33 0.99 -0.66 1.98 -1 3 C-0.61067144 5.14255793 -0.61067144 5.14255793 0 7 C-1.65 7.33 -3.3 7.66 -5 8 C-5.33 6.02 -5.66 4.04 -6 2 C-2.25 0 -2.25 0 0 0 Z " fill="#1FAC7B" transform="translate(455,32)"/>
</svg>
